<?xml version="1.0" standalone="no"?><!DOCTYPE svg PUBLIC "-//W3C//DTD SVG 1.1//EN" "http://www.w3.org/Graphics/SVG/1.1/DTD/svg11.dtd">
<svg t="1706748939437" class="icon" viewBox="0 0 1024 1024" version="1.1" xmlns="http://www.w3.org/2000/svg" p-id="6731"
     width="200" height="200"><path d="M972.8 48H51.2C22.921 48 0 71.098 0 99.59v825.289c0 28.477 22.922 51.547 51.2 51.547h921.6c28.278 0 51.2-23.07 51.2-51.547V99.59C1024.002 71.098 1001.08 48 972.8 48zM870.397 821.7H153.605V563.819L307.2 409.065l256.004 257.91 153.593-154.767 153.597 154.765 0.002 154.728zM767.997 409.064c-56.554 0-102.394-46.179-102.394-103.153 0-56.995 45.84-103.159 102.394-103.159 56.555 0 102.399 46.164 102.399 103.159 0 56.975-45.844 103.153-102.399 103.153z" fill="#CCDBFF" p-id="6732"></path></svg>