<?xml version="1.0" standalone="no"?><!DOCTYPE svg PUBLIC "-//W3C//DTD SVG 1.1//EN" "http://www.w3.org/Graphics/SVG/1.1/DTD/svg11.dtd">
<svg t="1706748501357" class="icon" viewBox="0 0 1271 1024" version="1.1" xmlns="http://www.w3.org/2000/svg" p-id="4404"
     width="248.2421875" height="200"><path d="M561.296198 0.004061l-82.537561 82.590526H148.590738c-43.272634-0.335447-73.974841 31.055309-74.292632 74.327943L73.503626 512.001766c143.341702-130.594725 215.127311-196.660084 215.392138-198.178422l437.493212 437.669762L453.988541 1023.99947H148.590738C61.250992 1023.310922-0.66542 945.681477 0.005473 858.836073V156.92253C0.711677 70.059471 61.303957-0.613868 148.590738 0.004061h412.70546z m553.045797 0C1200.375265 1.416468 1271.083913 71.012846 1271.172189 156.904875v710.193781c-3.001366 84.832723-71.979815 157.112675-156.830194 156.900814H619.081319l272.382779-272.524019-123.81517-123.868135 57.785121-66.065359c37.605349-37.393488 102.664367-29.077939 140.322681 8.262584l222.877898 222.966173V156.904875c-0.247171-43.519805-30.790483-74.327943-74.292633-74.327943H635.588831L718.126392 0.004061z m-290.955937 206.476315a119.772153 119.772153 0 0 1 117.582921 121.820144 119.683877 119.683877 0 1 1-239.332444-4.219567 119.736843 119.736843 0 0 1 121.749523-117.600577z" fill="#BEBEBE" p-id="4405"></path></svg>